<svg id="Layer_1" data-name="Layer 1" xmlns="http://www.w3.org/2000/svg" xmlns:xlink="http://www.w3.org/1999/xlink" viewBox="0 0 750 750"><defs><style>.cls-1{fill:#f9f2e7;}.cls-2{fill:#2c2219;}.cls-3{fill:#0d0905;}.cls-13,.cls-4{fill:#edc3a3;}.cls-5{fill:#fcdec7;}.cls-6{fill:#deaa82;}.cls-7{fill:none;}.cls-13,.cls-7{stroke:#bf7d4a;stroke-width:1.5px;}.cls-8{fill:url(#linear-gradient);}.cls-9{fill:#725e1c;}.cls-10{fill:#816e2d;}.cls-11{fill:#634f0e;}.cls-12{fill:#443400;}.cls-14{fill:#bf7d4a;}.cls-15{fill:#e5b692;}.cls-16{fill:url(#linear-gradient-2);}.cls-17{fill:#92002a;stroke:#830026;stroke-width:0.75px;}.cls-18{fill:#64001d;}.cls-19{fill:#a1103a;}.cls-20{fill:#b1234c;}.cls-21{fill:url(#radial-gradient);}.cls-22{fill:#3d2410;}.cls-23{fill:#4c311c;}.cls-24,.cls-25,.cls-38,.cls-39{fill:#fff;}.cls-24{opacity:0.8;}.cls-24,.cls-25,.cls-35,.cls-38,.cls-39{isolation:isolate;}.cls-25{opacity:0.7;}.cls-26{fill:url(#radial-gradient-2);}.cls-27{fill:url(#radial-gradient-3);}.cls-28{fill:#09112e;}.cls-29{fill:url(#radial-gradient-4);}.cls-30{fill:url(#radial-gradient-5);}.cls-31{fill:url(#radial-gradient-6);}.cls-32{fill:url(#radial-gradient-7);}.cls-33{fill:url(#radial-gradient-8);}.cls-34,.cls-35{fill:#3b3128;}.cls-35{opacity:0.1;}.cls-36{fill:#1c150e;}.cls-37{fill:#4a423a;}.cls-38{opacity:0.2;}.cls-39{opacity:0.4;}.cls-40{fill:#382e1b;}.cls-41{fill:#473d2a;}</style><linearGradient id="linear-gradient" x1="96.63" y1="492.4" x2="96.63" y2="527.31" gradientTransform="matrix(2.85, 0, 0, -2.85, 24.23, 1907.97)" gradientUnits="userSpaceOnUse"><stop offset="0" stop-color="#deaa82" stop-opacity="0.8"/><stop offset="0.7" stop-color="#bf7d4a"/></linearGradient><linearGradient id="linear-gradient-2" x1="94.87" y1="524.21" x2="94.87" y2="527.21" gradientTransform="matrix(2.99, -0.16, -0.16, -2.99, 96.87, 2000.83)" gradientUnits="userSpaceOnUse"><stop offset="0.1" stop-color="#e5b692"/><stop offset="1" stop-color="#deaa82"/></linearGradient><radialGradient id="radial-gradient" cx="122.95" cy="575.71" r="13.44" gradientTransform="matrix(-2.99, 0.42, -0.42, -2.99, 825.35, 1943.17)" gradientUnits="userSpaceOnUse"><stop offset="0" stop-color="#fff"/><stop offset="0.54" stop-color="#fdfefe"/><stop offset="0.74" stop-color="#f6f8f9"/><stop offset="0.88" stop-color="#eaeff2"/><stop offset="0.99" stop-color="#d9e3e8"/><stop offset="1" stop-color="#d8e2e7"/></radialGradient><radialGradient id="radial-gradient-2" cx="120.61" cy="647.99" fx="134.7863501601696" r="17.96" gradientTransform="matrix(2.85, -0.09, 0.08, 2.64, -178.31, -1440.23)" gradientUnits="userSpaceOnUse"><stop offset="0" stop-color="#deaa82"/><stop offset="0.7" stop-color="#deaa82" stop-opacity="0.3"/><stop offset="1" stop-color="#edc3a3" stop-opacity="0"/></radialGradient><radialGradient id="radial-gradient-3" cx="70.43" cy="572.78" r="19.34" gradientTransform="matrix(1.96, -0.38, -0.38, -1.99, 300.96, 1448.91)" gradientUnits="userSpaceOnUse"><stop offset="0.9" stop-opacity="0"/><stop offset="1" stop-opacity="0.3"/></radialGradient><radialGradient id="radial-gradient-4" cx="122.96" cy="575.71" r="13.44" gradientTransform="matrix(3.02, 0.11, 0.1, -3.02, -65.85, 1989.87)" xlink:href="#radial-gradient"/><radialGradient id="radial-gradient-5" cx="120.6" cy="647.99" fx="134.77145410398188" r="17.96" gradientTransform="matrix(-2.84, 0.21, 0.19, 2.64, 578.65, -1479.9)" xlink:href="#radial-gradient-2"/><radialGradient id="radial-gradient-6" cx="70.41" cy="572.78" r="19.34" gradientTransform="matrix(-1.99, -0.18, 0.17, -2.02, 404, 1443.51)" xlink:href="#radial-gradient-3"/><radialGradient id="radial-gradient-7" cx="95.01" cy="550.55" r="40.03" gradientTransform="matrix(2.85, -0.15, -0.15, -2.85, 106.19, 1920)" gradientUnits="userSpaceOnUse"><stop offset="0" stop-color="#fcdec7" stop-opacity="0.5"/><stop offset="0.9" stop-color="#edc3a3" stop-opacity="0"/></radialGradient><radialGradient id="radial-gradient-8" cx="95.01" cy="606.62" r="36" xlink:href="#radial-gradient-7"/></defs><title>abigail</title><g id="svga-group-backs-single"><path id="SvgjsPath5527" class="cls-1" d="M675,675H-75V-75H675Z" transform="translate(75 75)"/></g><g id="svga-group-subwrapper"><g id="svga-group-hair-back"><path id="SvgjsPath5377" class="cls-2" d="M449.09,256.78a214.75,214.75,0,0,0,4.37-40.8l32.15-1.72c5.69,10.9,8.3,16.91,12,22-5.24-1.78-11.27-3.59-22.51-13,1,2.39,13.89,34.89,14.91,40.56-9.86-7.44-13.77-15.85-19.9-21.94,4.59,23.64,7.1,36.13-4,67.28C456.22,265.47,451,257.92,449.09,256.78ZM106.17,239.2c.71,25.51-5.8,44.7-31,68.56,8.12-3.12,15.3-7.75,27.91-15.93a90.2,90.2,0,0,0,4-19.62c-1.13,22.6-13.66,38.82-.24,64.72.55-22.24,7.13-38.36,25.56-52a46.71,46.71,0,0,0-3.67,3.3c2-1.85,4.09-3.6,6.25-5.26-5.07-13.53-9.73-33.81-10.43-44.73Zm-1.89,19a62.14,62.14,0,0,1-10.52-18.36l12.39-.66C105.93,243.17,105.52,252,104.28,258.22Z" transform="translate(75 75)"/><path id="SvgjsPath5378" class="cls-3" d="M495.38,234.58a130.85,130.85,0,0,1-10.08-17.16l3-.17c3.18,6.25,6.81,13.95,10.81,20-9.94-2.44-15-5.16-22.75-12.26,10,21.93,11.92,32.78,16.66,41.75-12.92-7.08-15.25-16.48-22.17-23.73,5.35,21.94,10.35,39.17-5.9,71.91-.89-17.27-5.62-39.22-12.8-55.82,9.64,8.48,12.63,37.91,13.88,48A155,155,0,0,0,472,285.71c3.91-19.27-1.36-36.39-2.72-44.94,5.51,3.24,12.15,16.11,20.44,22.37-5.66-12.2-6.54-18.52-17.33-43.42C480.58,227,487.89,232,495.38,234.58ZM106.17,334.84c-10.61-22.61-.23-40,.9-62.63-.46,6.42-2.4,12.6-4.32,18.78-12.62,8.18-17.84,12.71-26,15.83C102,283,106.9,265.28,106.2,239.76l-.3,0a128.5,128.5,0,0,1-2,17.13,53.82,53.82,0,0,1-9.66-17.13l-3.36.21a54.24,54.24,0,0,0,12.4,19.58c-3.52,20.13-17.28,36-31,49.83,9.27-.78,21.57-9.09,29.41-14.87-5,16.53-4.66,30.67,7.5,49.73-2.24-30.37,12.27-48.81,19.55-56.06a43.41,43.41,0,0,1,3.66-3.3C114,298.58,106.73,312.6,106.17,334.84Z" transform="translate(75 75)"/></g><g id="svga-group-humanbody-single"><path id="SvgjsPath2761" class="cls-4" d="M558.93,586.14C541.8,557.19,520.52,552,503,546.42c-18-5.74-55.14-9.06-75.38-13.11-19.55-3.91-66-16.5-66.52-38.44-.55-23,12.23-114.26,12.23-114.26H225.89s12.79,91.27,12.24,114.26c-.52,21.94-47,34.53-66.52,38.44-20.25,4.05-57.36,7.37-75.38,13.11-17.54,5.6-38.82,10.77-55.95,39.72-10.38,17.55-17.12,46-17.12,77.33h552.9C576.06,632.12,569.33,603.69,558.93,586.14Z" transform="translate(75 75)"/><path id="SvgjsPath2762" class="cls-5" d="M361.09,494.87c7.11,31.15,51.77,39,74.94,43.68,62.44,12.48,96.25,14.63,120.54,55.69,8.28,14,15.56,45.21,17,68.83,5.23.83,1.52-49.68-14.63-76.93C531.16,539.19,476,543,427.61,533.31c-19.55-3.91-66-16.49-66.52-38.44Zm-122.22,0c-.53,22-47,34.53-66.52,38.44C123.94,543,68.8,539.19,41,586.14,24.88,613.39,21.17,663.9,26.4,663.07c1.43-23.62,8.72-54.82,17-68.83C67.68,553.18,101.5,551,163.94,538.55c23.16-4.64,67.82-12.53,74.93-43.68Z" transform="translate(75 75)"/><path id="SvgjsPath2763" class="cls-6" d="M160.92,556.63s81.62.85,95.4,5.37c6.59,2.16,23.86,16.06,23.86,16.06s-18.69-9-24.68-10.71C241.58,563.46,160.92,556.63,160.92,556.63ZM299.4,586.52c5.85-.12,22.47-10.83,22.47-10.83S306,581.56,301,581.85c-4.25.24-18.14-3.53-18.14-3.53S294.6,586.61,299.4,586.52Zm49.05-20.64c19.24-5.18,84.89-9.21,84.89-9.21s-67.8-1.47-86.95,4.92c-6.42,2.14-21.55,14.7-21.55,14.7S342.12,567.58,348.45,565.88Z" transform="translate(75 75)"/><path id="SvgjsPath2764" class="cls-7" d="M558.93,586.14c-27.77-46.94-83-43.16-131.32-52.83-19.55-3.91-66-16.49-66.52-38.44-.55-23,12.23-114.25,12.23-114.25H225.89s12.79,91.26,12.24,114.25c-.52,22-47,34.53-66.52,38.44-20.25,4.06-57.36,7.37-75.38,13.11-17.54,5.6-38.82,10.77-55.95,39.72-10.38,17.56-17.12,46-17.12,77.33h552.9C576.06,632.12,569.33,603.69,558.93,586.14Z" transform="translate(75 75)"/></g><g id="svga-group-chinshadow-single"><path id="SvgjsPath5535" class="cls-8" d="M300.11,506c15.94,0,38.44-10.28,59.59-24.05,1.27-19.06,4.89-49.15,7.79-71.67-39.77-5.17-96.16-5.05-135.73.3,2.88,22.32,6.44,51.94,7.73,70.94C261,495.5,283.94,506,300.11,506Z" transform="translate(75 75)"/></g><g id="svga-group-clothes-single"><path id="SvgjsPath5487" class="cls-9" d="M139,657.23c-72.72,0-112.68-.65-118.8-1.92l0-.31c-4.82-75.89,39.47-116.16,135.4-123.1,35.51,22,92.54,33.22,169.35,33.22,81.52,0,161.27-12.93,191.77-18.49,43.87,22.82,60.29,51.72,60.35,106.57-11.33.84-276.83,4-438,4Z" transform="translate(75 75)"/><path id="SvgjsPath5488" class="cls-10" d="M577.06,653.2s.35-83.6-84.2-100c12.83-2,16.32-5.19,23.85-6.57C560.58,569.45,577,598.35,577.06,653.2ZM439.86,558c-80.44,9.3-215.44,16.63-284.27-26.07C71,538,15.14,570.31,20.21,655.31c.36.07.84.14,1.43.21,3.59-49,19.4-66,47-84.65,9.73,12.32,15.44,36.09,15.44,53.34,0-24.46.48-35.45-2.86-59.91,26.07-14.56,54.76-17.62,79.9-21.7C244.86,583,381.53,578.75,439.86,558Z" transform="translate(75 75)"/><path id="SvgjsPath5489" class="cls-11" d="M122.48,539.18c78.31,53.71,243.4,50.1,337.15,37.61C483,572.8,239.91,623,122.48,539.18Z" transform="translate(75 75)"/><path id="SvgjsPath5490" class="cls-12" d="M516.66,546.35c-98.47,17.94-278.74,36.21-361.09-14.73C69.07,537.87,14.56,571,19.91,655c0,.17,0,.34,0,.52,20.66,5,548.46-1,557.4-2.08C577.34,601.77,564,570.89,516.66,546.35ZM20.31,655c0-44.39,14.27-77.92,49.4-96.83,4.59,6.49,9,23.87,9.89,25.69,0,0-2.15-20.52-6.34-27.86,10.89-5.77,24.12-12,49-17.37,71.35,54,266.11,58.55,372.92,29.93a.89.89,0,0,1-.17,0c-87.66,23.86-294.85,21.91-371.67-30.18,4.42-1.37,26.26-4.63,31.7-5.39,119.31,74.88,358.22,15.31,361.07,15.31,43.18,24.23,58.8,52.76,60.47,104.62C379.93,646.85,127.17,657.39,20.31,655Z" transform="translate(75 75)"/></g><g id="svga-group-head"><g id="svga-group-ears-left"><path id="SvgjsPath5528" class="cls-13" d="M139.54,268.25c-4.36-6.3-18.39-23.42-28.27-20.4-8,2.47-7.35,13.56-7.64,20.16-.41,9.68.13,26.49,3.17,33.16,2.91,6.4,11.71,18.61,17,23.17,6.53,5.58,17.44,23.89,18.76,25.78,2.09,3,6.17,7.2,12.07,6.54,8.28-.92,15.05-9,15.51-12.7C172.62,323.71,150.87,284.64,139.54,268.25Z" transform="translate(75 75)"/><path id="SvgjsPath5529" class="cls-14" d="M137.64,308.11c-.47-1.47-.19-4,.08-6.44a22.55,22.55,0,0,0,.19-5.8c-1.07-5.48-6-15.75-9.19-21.29-3.65-6.37-9.42-14.34-16.24-16.11A5.23,5.23,0,0,0,106.9,260c-.74.83-.87,1.76-.61,1.85s.8-.69,1.6-1.46c.65-.62-1.38,0,0,0-.41,2.78-1.47,16.79.29,26.88,1.39,7.94,3.58,13.81,4.2,14.67a20,20,0,0,0,.57,2.73c3.33,11.52,21.74,25.84,26.07,30,.8.76,1.62,1.2,1.8,1s-.32-1-1.12-1.74c-4.27-4.1-22.57-18.38-25.78-29.49-3.4-11.79,9-30.18,11-34,1.17,1.7,2.18,3.34,3,4.71.61,1.08,1.3,2.34,2,3.7-1.15,2-13,16.93-9.19,28.16,1.4,4.15,10.84,9.09,14.45,10.39a7,7,0,0,1,3.71,3.27c1.07,1.59.4,5.88,3.7,7.06a4.85,4.85,0,0,0,1.81.3,3.27,3.27,0,0,0,2.07-.87,23.52,23.52,0,0,1,.16,2.49c0,1.11.21,1.61.49,1.62s.54-.49.52-1.59a15.12,15.12,0,0,0-.41-3.8c-.85-2.31-3.21-4.86-5.7-7.54S138.36,310.39,137.64,308.11Zm-25.5-9c-7.31-18,1.63-35.16,2.93-37.74,2.79.91,7.23,5.43,9.15,8.09C123,271.71,111.76,286.76,112.14,299.08Zm30.73,27.64c-3-1.07-2.18-5.15-3.21-6.68a8,8,0,0,0-4.2-3.65,10.5,10.5,0,0,1-1.62-.8c-8.1-15.68-.42-23.12,1.52-24.67a34.67,34.67,0,0,1,1.56,5.14,22.63,22.63,0,0,1-.2,5.5c-.28,2.55-.57,5.18,0,6.85.79,2.48,1.52,7.79,4,10.52,2.24,2.42,4.55,4.91,5.4,7A2.57,2.57,0,0,1,142.87,326.72Z" transform="translate(75 75)"/></g><g id="svga-group-ears-right"><path id="SvgjsPath5530" class="cls-13" d="M440.43,252.48c3.67-6.72,15.83-25.22,26-23.24,8.25,1.61,8.73,12.72,9.71,19.25,1.42,9.59,2.63,26.36.32,33.31-2.23,6.67-9.71,19.73-14.5,24.82-5.91,6.23-14.85,25.58-16,27.6-1.76,3.19-5.38,7.81-11.32,7.77-8.32-.06-15.9-7.35-16.75-11C413.33,311.1,430.87,270,440.43,252.48Z" transform="translate(75 75)"/><path id="SvgjsPath5531" class="cls-14" d="M443.74,302.41c-2.21,2.94-4.28,5.71-4.89,8.1a15.51,15.51,0,0,0,0,3.82c.1,1.09.41,1.56.69,1.52s.41-.55.32-1.65a24.58,24.58,0,0,1-.11-2.49,3.31,3.31,0,0,0,2.16.64,4.72,4.72,0,0,0,1.76-.48c3.16-1.52,2-5.72,2.94-7.42a7,7,0,0,1,3.35-3.63c3.46-1.67,12.33-7.57,13.29-11.84,2.6-11.57-10.73-25.17-12.08-27.05.56-1.43,1.11-2.76,1.61-3.89.64-1.44,1.47-3.18,2.46-5,2.32,3.63,16.6,20.62,14.45,32.7-2,11.39-18.73,27.5-22.55,32-.71.85-1.14,1.67-.94,1.85s1-.33,1.69-1.17c3.87-4.56,20.69-20.73,22.79-32.53a19.39,19.39,0,0,0,.29-2.78c.52-.92,2.09-7,2.63-15,.7-10.22-1.81-24-2.51-26.75,1.37-.18-.72-.55,0,0,.88.67,1.49,1.4,1.74,1.28s0-1-.79-1.78a5.28,5.28,0,0,0-5.72-.94c-6.59,2.48-11.5,11-14.47,17.73-2.57,5.83-6.41,16.56-6.9,22.13a21.87,21.87,0,0,0,.79,5.74c.52,2.4,1.06,4.89.75,6.4C446,294.26,445.9,299.53,443.74,302.41Zm12-50.35c1.64-2.85,5.58-7.81,8.26-9,1.56,2.44,12.25,18.6,6.86,37.23C470,268,457.2,254.2,455.78,252.06ZM439.9,310.53c.63-2.16,2.66-4.88,4.64-7.52,2.23-3,2.4-8.33,2.93-10.89.35-1.71-.21-4.3-.75-6.81a21.91,21.91,0,0,1-.78-5.44,34,34,0,0,1,1-5.28c2.09,1.33,10.5,7.93,4.09,24.38a10.81,10.81,0,0,1-1.53,1,8,8,0,0,0-3.8,4.07c-.86,1.63.38,5.6-2.49,7C441.29,311.9,440.24,310.94,439.9,310.53Z" transform="translate(75 75)"/></g><g id="svga-group-faceshape-wrap"><g id="svga-group-faceshape-single"><path id="SvgjsPath5532" class="cls-4" d="M453.39,227h0c0,.15-21.78,117.3-42.78,154.29-16.52,29.1-76.25,87.34-108.81,89.1s-98.17-49.72-117.72-76.87C159.21,359,125,244.86,124.91,244.71h0A175.16,175.16,0,0,1,117,201.23C111.89,106,183.72,24.67,277.48,19.61s173.93,68,179.06,163.28A175.75,175.75,0,0,1,453.39,227Z" transform="translate(75 75)"/><path id="SvgjsPath5533" class="cls-15" d="M350.83,32.19a173,173,0,0,1,97.34,147.5,175,175,0,0,1-3.3,44.06h0c0,.16-22.17,117.23-43.28,154.15-15.24,26.66-66.24,85.63-100.49,87.42S210,413.8,192,388.89c-24.86-34.52-59.12-148.63-59.16-148.78h0A175.15,175.15,0,0,1,125,196.62,173,173,0,0,1,206.37,39.76C150.1,70.39,113.3,132.12,117,201.23a176.08,176.08,0,0,0,7.88,43.48h0c0,.15,34.3,114.26,59.16,148.78,13.32,18.5,49.4,53.8,79.69,67.3-1.51-.56-3-1.17-4.56-1.81,15.51,7.4,30.45,12,41.74,11.42l.43,0h.42c11.29-.61,25.67-6.75,40.33-15.72-1.47.8-2.92,1.55-4.36,2.28,28.71-16.6,60.91-55.48,72.22-75.27,21.12-36.93,43.27-154,43.29-154.15h0a175.61,175.61,0,0,0,3.29-44.07C453.05,114.32,410,56.77,350.83,32.19Z" transform="translate(75 75)"/><path id="SvgjsPath5534" class="cls-7" d="M453.39,227h0c0,.15-21.78,117.3-42.78,154.29-16.52,29.1-76.25,87.34-108.81,89.1s-98.17-49.72-117.72-76.87C159.21,359,125,244.86,124.91,244.71h0A175.16,175.16,0,0,1,117,201.23C111.89,106,183.72,24.67,277.48,19.61s173.93,68,179.06,163.28A175.75,175.75,0,0,1,453.39,227Z" transform="translate(75 75)"/></g></g><g id="svga-group-mouth-single"><path id="SvgjsPath5539" class="cls-16" d="M298.7,414.37c-14.8.78-18.83-8.1-18.83-8.1a51.41,51.41,0,0,0,35.35-2.22S311.71,413.69,298.7,414.37Z" transform="translate(75 75)"/><path id="SvgjsPath5543" class="cls-17" d="M253.87,387.8c8-.81,22.38-4.4,30-4.53,3.95-.07,8,2.43,12.17,3.08,2.9.46,11.59-3.9,14.51-4.24,7.66-.89,22.26,1.06,29.34,1.22h0s-16,24-42,25.35c-29.38,1.53-44-20.88-44-20.88Z" transform="translate(75 75)"/><path id="SvgjsPath5544" class="cls-18" d="M340.92,382.44c-.16-.38-1.41-.49-1.89-.31-.88.32-1.9,1.66-3.81,2.25-2.21.69-14.78,5.06-18.28,5.42-7.05.73-13.11,3.52-20.05,3.87s-13.12-2.1-20.24-2.11c-3.53,0-15.71-2.82-18-3.26-2-.37-2.75-1.57-3.58-1.86a2.68,2.68,0,0,0-2.2.43c-.22.33.36,1.8.71,2.21.87,1,3.38,1.33,5.09,1.67,2.35.47,14.43,3.33,18,3.35,6.91,0,13.05,2.69,19.93,2.33s13-3.39,19.95-4.11c3.56-.37,16.32-4.79,18.69-5.51,1.71-.53,4.08-1.41,4.89-2.29A3.34,3.34,0,0,0,340.92,382.44Z" transform="translate(75 75)"/><path id="SvgjsPath5545" class="cls-19" d="M297.33,404.9c-11.7.62-23.23-2.51-31.33-9.42,4.1.35,8.49.17,12.82.53,5.34.45,10.39,2.22,15.85,2.27,5.9.07,11.62-2.09,17.46-3.43,4.86-1.12,12.41-3.85,16.95-4.79C320.69,397.22,308.62,404.31,297.33,404.9Zm15.51-16.08c4.43-.68,11.38-3.23,15.45-3.92-4.26-1-11.48-.24-16.73-.45-4.52-.18-9.56,3.08-14.24,3.79-5.27.8-9-3.22-14-3.37-5.43-.15-11.23,2.27-15.8,3.57,4.17.35,8.63.27,13,.87,5.29.75,10.33,2.43,15.77,2.34S307.38,389.66,312.84,388.82Z" transform="translate(75 75)"/><path id="SvgjsPath5546" class="cls-20" d="M314.52,395.82c-.92.07-1.86.17-2.77.29a27.13,27.13,0,0,0-2.85.52c-1.6.38-3.18.87-4.84,1.36a32.78,32.78,0,0,1-7.9,1.59c-.44,0-.9,0-1.35,0a32.25,32.25,0,0,1-6.61-.89,42.24,42.24,0,0,0-6.11-1.16l-1.16-.06c-1.23,0-2.51,0-3.77,0,5.41,3.9,12.66,5.44,19.65,5.08C304,402.21,309.47,399.4,314.52,395.82Z" transform="translate(75 75)"/></g><g id="svga-group-eyes-left"><g id="svga-group-eyesback-left"><path id="SvgjsPath5244" class="cls-21" d="M252.2,258.83a29.26,29.26,0,0,1,4.06,13.07c.46,8.84-4.09,15.44-7.89,20-18.8,19-49.55,19.62-66.16.49a30.4,30.4,0,0,1-5.17-15.9C189.42,239.39,228.28,227.1,252.2,258.83Z" transform="translate(75 75)"/></g><g id="svga-group-eyesiriswrapper-left"><g id="svga-group-eyesiriscontrol-left"><g id="svga-group-eyesiris-left"><path id="SvgjsPath4893" class="cls-22" d="M217.42,230c17.33-.91,32.36,16.83,33.55,39.62s-11.9,42-29.23,42.92-32.36-16.83-33.55-39.63S200.09,230.93,217.42,230Z" transform="translate(75 75)"/><path id="SvgjsPath4894" class="cls-23" d="M198,273.22c1.14,15.67,11.36,27.82,23.09,27.2,10.92-.57,19.39-12,20.09-26.31,2.7.16,5.36.25,7.94.23-.72,19.38-12.39,35-27.52,35.79-15.75.82-29.44-14.72-31.39-35.09A52.77,52.77,0,0,1,198,273.22Z" transform="translate(75 75)"/><path id="SvgjsPath4895" class="cls-24" d="M207.55,296.81c.11,2.08-1.78,3.88-4.21,4s-4.5-1.46-4.61-3.55,1.77-3.87,4.21-4S207.44,294.73,207.55,296.81Z" transform="translate(75 75)"/><path id="SvgjsPath4896" class="cls-25" d="M239.86,296a1.22,1.22,0,1,1-.13-2.43,1.22,1.22,0,1,1,.13,2.43Zm4.24-15.53a1.22,1.22,0,1,0,.12,2.43A1.22,1.22,0,1,0,244.1,280.47Zm-.63,3a1.21,1.21,0,1,0,.13,2.42A1.21,1.21,0,1,0,243.47,283.5Zm-2.42,6.3a1.22,1.22,0,1,0,.13,2.43A1.22,1.22,0,1,0,241.05,289.8Zm-2.1,8.51a1.34,1.34,0,0,0-2.68-.09,1.34,1.34,0,0,0,2.68.09Zm-4.19,1.18a1.22,1.22,0,1,0,.13,2.44A1.22,1.22,0,1,0,234.76,299.49Zm-3.12,2.31a1.22,1.22,0,1,0,.13,2.43A1.22,1.22,0,1,0,231.64,301.8Zm-4.14,1.42a1.21,1.21,0,1,0,.13,2.42A1.21,1.21,0,1,0,227.5,303.22Zm14.59-16.42a1.22,1.22,0,1,0,.13,2.43A1.22,1.22,0,1,0,242.09,286.8Z" transform="translate(75 75)"/></g></g></g><g id="svga-group-eyesfront-left"><path id="SvgjsPath5269" class="cls-4" d="M162.81,277.12c2.06,39.3,27.94,69.88,57.8,68.32s52.41-34.69,50.35-74S243,201.57,213.15,203.13,160.75,237.82,162.81,277.12Zm19.4,15.31a30.4,30.4,0,0,1-5.17-15.9c12.38-37.14,51.24-49.43,75.16-17.7a29.3,29.3,0,0,1,4.06,13.07c.46,8.84-4.09,15.44-7.89,20.05C229.57,310.9,198.82,311.56,182.21,292.43Z" transform="translate(75 75)"/><path id="SvgjsPath5270" class="cls-26" d="M168.34,270.3c3.71,26.47,29.44,44.53,57.51,40.36s47.8-29,44.08-55.46-29.45-44.53-57.51-40.36S164.61,243.85,168.34,270.3Zm8.7,6.23c12.38-37.14,51.24-49.43,75.16-17.7a29.3,29.3,0,0,1,4.06,13.07c.46,8.84-4.09,15.44-7.89,20.05-18.8,18.95-49.55,19.61-66.16.48A30.31,30.31,0,0,1,177,276.53Z" transform="translate(75 75)"/><path id="SvgjsPath5275" class="cls-27" d="M237.74,245.68a48.71,48.71,0,0,1,14.46,13.15,29.26,29.26,0,0,1,4.06,13.07c.46,8.84-4.09,15.44-7.89,20-18.8,19-49.55,19.62-66.16.49a30.4,30.4,0,0,1-5.17-15.9c5.69-17.06,17-28.86,29.82-33.57a39.21,39.21,0,0,1,4.24-1.06A41,41,0,0,1,237.74,245.68Z" transform="translate(75 75)"/><path id="SvgjsPath5279" class="cls-14" d="M248.71,237.35c-17.51-9-38.71-11.3-62.37.74C203.78,226.55,229.65,224.35,248.71,237.35Z" transform="translate(75 75)"/><path id="SvgjsPath5280" class="cls-28" d="M181.89,291.64c16.51,18.87,47.51,18.26,66.45-.28C226.25,317.32,186.58,307.08,181.89,291.64Zm77.42-45.22c-19.37-21.92-63.94-16.21-87.77,2.14A169.1,169.1,0,0,0,190,240.94c-15.59,8.25-15.28,14.13-27.8,28.51l6.12-5.61-2.86,9.76c3.11-5.05,4.94-7.17,7.06-9a79.63,79.63,0,0,0-1.57,8.69c4.18-6.32,6.62-9.61,10-12.5-3.69,5.87-4.61,11.24-4.78,18.3,12.06-40.28,56.27-52.88,80.06-14.15a43,43,0,0,0-7.89-15.44c5.09,2,9.4,6.48,13.53,13.46-3.67-12.12-5.69-15.22-16.55-22.75Z" transform="translate(75 75)"/></g></g><g id="svga-group-eyes-right"><g id="svga-group-eyesback-right"><path id="SvgjsPath5252" class="cls-29" d="M328.14,254.85a29.28,29.28,0,0,0-2.67,13.42c.46,8.84,5.68,14.93,9.94,19.11,20.68,16.89,51.33,14.33,65.85-6.43a30.47,30.47,0,0,0,3.48-16.35C388.54,229,348.62,220.8,328.14,254.85Z" transform="translate(75 75)"/></g><g id="svga-group-eyesiriswrapper-right"><g id="svga-group-eyesiriscontrol-right"><g id="svga-group-eyesiris-right"><path id="SvgjsPath4897" class="cls-22" d="M359.72,222.56c17.33-.91,32.36,16.84,33.55,39.63s-11.89,42-29.22,42.91-32.36-16.83-33.55-39.62S342.4,223.47,359.72,222.56Z" transform="translate(75 75)"/><path id="SvgjsPath4898" class="cls-23" d="M340.32,265.76c1.14,15.67,11.37,27.82,23.09,27.2,10.92-.57,19.39-12,20.09-26.3,2.71.15,5.36.24,7.95.22-.73,19.38-12.4,35-27.53,35.79-15.74.83-29.44-14.72-31.39-35.09A55.43,55.43,0,0,1,340.32,265.76Z" transform="translate(75 75)"/><path id="SvgjsPath4899" class="cls-24" d="M349.85,289.35c.11,2.09-1.78,3.88-4.21,4s-4.5-1.46-4.61-3.54,1.78-3.88,4.21-4S349.75,287.27,349.85,289.35Z" transform="translate(75 75)"/><path id="SvgjsPath4900" class="cls-25" d="M382.16,288.54a1.22,1.22,0,1,1-.12-2.43,1.22,1.22,0,1,1,.12,2.43ZM386.4,273a1.22,1.22,0,1,0,.13,2.43A1.22,1.22,0,1,0,386.4,273Zm-.63,3a1.22,1.22,0,1,0,.13,2.43A1.22,1.22,0,1,0,385.77,276Zm-2.41,6.3a1.22,1.22,0,1,0,.12,2.43A1.22,1.22,0,1,0,383.36,282.34Zm-2.11,8.51a1.34,1.34,0,0,0-2.68-.09,1.34,1.34,0,0,0,2.68.09ZM377.07,292a1.22,1.22,0,1,0,.13,2.43A1.22,1.22,0,1,0,377.07,292ZM374,294.35a1.22,1.22,0,1,0,.13,2.43A1.22,1.22,0,1,0,374,294.35Zm-4.14,1.41a1.22,1.22,0,1,0,.12,2.43A1.22,1.22,0,1,0,369.81,295.76Zm14.59-16.41a1.21,1.21,0,1,0,.13,2.42A1.21,1.21,0,1,0,384.4,279.35Z" transform="translate(75 75)"/></g></g></g><g id="svga-group-eyesfront-right"><path id="SvgjsPath5290" class="cls-4" d="M361.15,195.38c-29.86,1.56-52.41,34.68-50.35,74s27.95,69.89,57.81,68.32S421,303,419,263.7,391,193.81,361.15,195.38Zm-25.74,92c-4.26-4.18-9.48-10.26-9.94-19.11a29.28,29.28,0,0,1,2.67-13.42c20.48-34.06,60.4-25.9,76.6,9.74A30.4,30.4,0,0,1,401.26,281C386.74,301.71,356.09,304.27,335.41,287.38Z" transform="translate(75 75)"/><path id="SvgjsPath5291" class="cls-30" d="M363.11,206.94c-28.35-1.21-52.06,19.44-53,46.15s21.3,49.33,49.64,50.56,52.05-19.45,53-46.15S391.46,208.17,363.11,206.94Zm38.15,74c-14.52,20.76-45.17,23.32-65.85,6.43-4.26-4.18-9.48-10.26-9.94-19.11a29.28,29.28,0,0,1,2.67-13.42c20.48-34.06,60.4-25.9,76.6,9.74A30.4,30.4,0,0,1,401.26,281Z" transform="translate(75 75)"/><path id="SvgjsPath5296" class="cls-31" d="M341.14,240.26a48.82,48.82,0,0,0-13,14.59,29.28,29.28,0,0,0-2.67,13.42c.46,8.84,5.68,14.93,9.94,19.11,20.68,16.89,51.33,14.33,65.85-6.43a30.47,30.47,0,0,0,3.48-16.35c-7.44-16.38-19.89-26.93-33.16-30.28a41.48,41.48,0,0,0-30.44,5.94Z" transform="translate(75 75)"/><path id="SvgjsPath5300" class="cls-14" d="M329.36,233.12c16.48-10.81,37.32-15.28,62.11-5.78C372.92,217.68,347,218.2,329.36,233.12Z" transform="translate(75 75)"/><path id="SvgjsPath5301" class="cls-28" d="M335.38,286.8c20.77,16.45,51.67,13.82,66.12-6.67C398.44,296,360.06,310.3,335.38,286.8ZM333,235.64C323,244.26,321.35,247.56,319,260c3.38-7.38,7.2-12.27,12.05-14.81a43.28,43.28,0,0,0-6.24,16.19c19.61-41,64.9-33.09,81.1,5.7-.9-7-2.37-12.25-6.66-17.7,3.63,2.52,6.41,5.54,11.22,11.39a77.67,77.67,0,0,0-2.47-8.48c2.3,1.57,4.34,3.49,8,8.19l-3.86-9.41,6.66,4.93c-13.94-13-14.25-18.87-30.62-25.44a171.27,171.27,0,0,0,19.19,5.65c-25.62-15.77-70.55-16.79-87.52,7Z" transform="translate(75 75)"/></g></g><g id="svga-group-facehighlight-single"><path id="SvgjsPath2753" class="cls-32" d="M408.89,332.74a115,115,0,1,1-121-108.59A115,115,0,0,1,408.89,332.74Z" transform="translate(75 75)"/><path id="SvgjsPath2757" class="cls-33" d="M385.57,171.26A99.75,99.75,0,1,1,280.74,76.87,99.75,99.75,0,0,1,385.57,171.26Z" transform="translate(75 75)"/></g><g id="svga-group-eyebrows-left"><path id="SvgjsPath4905" class="cls-34" d="M148,240.42c19.87-27.82,56.71-25.29,86.94-22.57,7.69.69,15.58,1.1,23.16,2.6,5.44,1.07,10,7,5.92,12.12-1.89,2.45-6.31,2.25-9,2.33C219,236.06,177.36,217.53,148,240.42Z" transform="translate(75 75)"/></g><g id="svga-group-eyebrows-right"><path id="SvgjsPath4906" class="cls-34" d="M430,224.56a50.12,50.12,0,0,0-20.48-7.17c-27.26-3-77.8,17.75-91.53,14.64-8.41-1.9-7.17-10.29-3.61-12.53,2.14-1.35,2.75-1.35,22.27-5.77C369.78,206.23,407,199.7,430,224.56Z" transform="translate(75 75)"/></g><g id="svga-group-nose-single"><path id="SvgjsPath5217" class="cls-6" d="M283.91,281.05s1.35,22.66.12,27.14c-2.71,9.86-15.74,33.07-13.61,39.21,3.31,9.53,17.1,9.52,24.06,9.5,6.68,0,20.18-1.22,22-7.63.75-2.61-1.51-9-1.51-9s-5.83,6.66-20.38,6.72c-4.16,0-11.11-3.7-11.49-9.44-.51-7.78,4.27-17,4.8-24.75C288.33,306.86,283.91,281.05,283.91,281.05Z" transform="translate(75 75)"/><path id="SvgjsPath5218" class="cls-14" d="M307,349.56c2.51-.13,3.22.5,3.26,1.32s-.67,2.13-3.1,1.65a30.76,30.76,0,0,0-7.27,0S304.53,349.69,307,349.56Zm-23.93,1.26c-2.51.13-3.15.84-3.11,1.66s.86,2,3.27,1.31a36.9,36.9,0,0,1,7.23-.73S285.62,350.69,283.11,350.82ZM315,340.22s3.68,3.76,3.17,8-7.4,6.23-7.4,6.23,4.7-3.34,5.1-7.12C316.05,345.52,315,340.22,315,340.22Zm-43-1.8s-2.25,5.64-1.34,9c1.65,6,9.08,8,9.08,8s-4.78-3.93-6.59-7.52C271.13,344,272,338.42,272,338.42Z" transform="translate(75 75)"/><path id="SvgjsPath5219" class="cls-5" d="M306.61,343.61c2.33-1.94,2.52-3,2-3.64s-2-1-3.93,1.29c-2.12,2.53-6.9,4.56-6.9,4.56S304.27,345.55,306.61,343.61Z" transform="translate(75 75)"/></g><g id="svga-group-hair-front"><path id="SvgjsPath5380" class="cls-35" d="M399.52,92.73c-27.07-23.67-124.37,4.34-153.92,8.75-28.17,3.7-70.14-82.9-114.24,147.18.7,10.92,5.18,30.07,10.1,43.61.39-.31.77-.64,1.16-.94,0,0-1,9.35,19,40.07-2.17-22.92,1.31-39.71,3.76-61.3,40.84-59.18,81.08-74.66,111.72-86.2-19.61,26-39.11,50-46.85,75.41,36.63-29.25,86.08-86.94,86.08-86.94s-3.21,13.59-72.91,86.25c30.13-9.23,85.39-43.51,122.08-106.14,8.33,12.41-30,89.45-31,92.38,20.47-18.44,48.25-44.3,54.22-73.1a213.26,213.26,0,0,1,8.71,24.18c9.84,34.19,12.17,77.21,14.21,88.08,3.34-25.07,2.61-52.88,2.62-52.52,13.56,50.35,5.7,86.43,6.16,98.77,12.95-30.46,26.16-66.71,28.82-100.06C449.23,230.21,409.27,87.65,399.52,92.73Z" transform="translate(75 75)"/><path id="SvgjsPath5381" class="cls-34" d="M484.62,199.94c-1-15.33-5.2-39.45-10.94-53,9.65,9.17,21.77,20,31.48,25.46-13-10.33-17.36-19.52-48.63-78.21-19.19-36-32.68-74.62-66.64-77.47-11.46-1-22.31,4-32.47,9.1C329.3,2.19,295.36-6.14,264.61-1.67,170.48,10.42,148.54,74,98.65,89.13c8,1.94,21.18-2.45,28.57-6.49-9.7,15-6.08,13.25-27.91,38-8.9,10-17,22.13-27.94,29.59,15.1-2.74,22.47-15,44.06-28.29a224.66,224.66,0,0,1-31.11,43,313.94,313.94,0,0,1-29.07,27c6.58-3.08,25.91-12,42.17-28.33-8.17,13.36-32.27,38.62-18.26,86.23,1.21-21.2-2.45-46.71,16.54-60.49-1.7,9.5-9.12,29.64-1.83,50.62l30.5-1.59c.7,10.91,5.37,30.92,10.46,44.45.41-.31.8-.64,1.21-.94,0,0,1.89,9.19,22.63,39.88-2.22-22.92-1.46-39.57,1.13-61.17,42.61-59.27,84.52-74.84,116.41-86.44-20.46,26.05-35.72,55.62-43.83,81.09,29.07-34.8,89.93-89.66,89.93-89.66s-.29,13.9-73,86.71c25.49-17.87,80.6-47.05,118.9-109.75,8.64,12.38-25.59,89.21-26.68,92.14,21.33-18.48,38.37-49.48,44.66-78.3,0,0,11.27,16.65,15.11,29.55,10.16,34.18,8.85,63.12,10.94,74,3.53-25.07,6.48-38.81,6.49-38.45,14,50.33,3.14,92.28,3.6,104.61,13.52-30.48,29.94-72.9,32.77-106.26l32.35-1.69C485,205.85,486.35,205.74,484.62,199.94Z" transform="translate(75 75)"/><path id="SvgjsPath5382" class="cls-36" d="M498.52,111.94c-10.65.08-16.37,1.14-28.92.77-2.1-4.25-8.47-15.39-10.65-19.61C469.18,101.41,490,111.5,498.52,111.94Z" transform="translate(75 75)"/><path id="SvgjsPath5383" class="cls-2" d="M116.22,120.51C95.13,133.67,86,146.23,73.92,148.92c11-7.45,17.13-18,26-28,21.83-24.74,19-24.68,28.72-39.63-7.08,3.87-19.43,9.11-27.53,7.86,37.55-5,76.46-56.21,121.51-52C176.91,44.75,139.72,80.69,116.22,120.51ZM341.56,234.63c27.76-67.5,29.24-77.37,26.68-92.14-34.6,56.65-108.94,102.77-118.89,109.75,43.39-43.47,62.1-72.76,69.19-83.31-60.42,54.5-60.33,55.34-86.16,86.26,13.6-42.68,6.05-33,43.83-81.09C259,180.35,245.07,186.25,234,192.34c1.38-3.9,1.75-5.94,6.64-14.14,19.22-13.45,56.57-45.86,83.95-57.14-9.43,8.44-14,18.66-23.3,27.18,14.74-4.64,32.9-7.59,60.87-25.44-1.48,1.34,48.7-27.18,30.45-55.9,10.67,6.94,4.64,37.82,1.29,66.44,11.64,14.72,15,33.21,19.6,52,0-6.26.19-21.4-1.4-27.46,7.26,16.53,17.59,38.5,18.77,63.17,10.57-34-.52-63.54-2.16-94.85,11.52,17.46,17.42,50.19,21,70.34,1.87-13.18,3.05-23.07-3.61-39.86,3.88,4.43,9,7.61,12.89,13.59-6.21-26.62-16-44.94-29.08-63.63,12.22,13,29.78,23.65,36.25,40.43-4.43-31.16-17.23-61.88-38.09-86.47A346.44,346.44,0,0,1,458.1,97.1c29.84,56,34.27,65.12,47.06,75.28-9.71-5.52-21.83-16.29-31.48-25.46,5.75,13.56,9.92,37.69,10.95,53,1.72,5.81.36,6.2,2.87,18.42L455.15,220c-2.83,33.36-19.26,75.49-32.78,106-.45-12,9.88-52.3-2.66-101-.31-1.19-.61-2.38-.95-3.58,0-.37-2.95,13.38-6.48,38.45-2.09-10.86-.78-39.81-10.95-74-3.84-12.9-15.1-29.56-15.1-29.56C368.34,211.1,347.18,232.55,341.56,234.63Zm-71.89-93.86c-24.91,8.88-48.38,30.54-66.86,51.49,5.13-8.83,7.32-20.36,15.24-29.34,12.46-29.19,36.52-50.42,54.85-74.21-40.5,27.8-63.66,66.11-92.4,104.72,7.47-17.52,14.64-40.72,27.84-55.68-27.14,15.69-31.23,44.44-49.56,68.23,6.38-91.65,84.54-201.33,183.8-175.14C243.08-3,152.31,106.65,135.4,219c-.66-10.78-2.27-71.42,19-95.59-21.41,18.25-25.5,47-38.4,67.65-2.88-11.47,1.74-21.44,4.73-31-2.7,4.63-8,8.28-11.12,13.45,5.86-23.34,11.57-47.58,32.89-63.77-12.83,7.41-22,18.16-34.74,25.68a218.27,218.27,0,0,1-22.94,30.09c-7.6,8.22-18.6,17.76-27.45,24.87,6.58-3.08,25.24-14.73,41.73-29.27-7.52,14-32.32,38-20.44,85-.18-21.17-.89-44.7,18.11-58.48-1.69,9.51-9.63,32.06-2.35,53l29.94-1.57c.71,10.92,5.33,30.07,10.42,43.6.41-.31.8-.64,1.21-.94,0,0,1.18,5.6,11.41,22.46,2.94,4.84,6.59,10.57,11.22,17.42-2.22-22.92-1.45-39.57,1.14-61.17,25.66-35.69,51.05-55.53,74.17-68.2C235.72,187.41,242.56,167.23,269.67,140.77Z" transform="translate(75 75)"/><path id="SvgjsPath5384" class="cls-36" d="M113,125.7c28.89-66.3,92.71-88.26,115.85-89.39C179.4,50.5,145,74.92,113,125.7Zm199.4-98.8c-36.31-.49-102.58,26.82-134.66,105.91C213.92,57.75,286.18,26.56,312.41,26.9Zm89.9,6.18c-1.9-.59-3.62-1.86-5.53-2.5-22.24-7.5-41.36,9-42.27,24.05C357,39.74,378.07,25.56,402.31,33.08ZM385.78,44.61c35.54-10.42,68,56.55,68.83,59.37-7-22.43-34.82-71.9-68-61.84-10.91,3.31-19,12.28-24.89,21.84C367.89,55.52,375.53,47.57,385.78,44.61ZM264.16,160.44c18.69-17.93,106.49-50.59,101.26-90.08C366.77,106.28,297.43,128.54,264.16,160.44Zm82.5-99.38c-6-2.45-18.44-13.12-48.08,7.19C250.8,101,222.75,153.31,216,166.31,237.83,131.75,306.05,44.43,346.66,61.06Z" transform="translate(75 75)"/><path id="SvgjsPath5385" class="cls-37" d="M216.94,47c-53,22.36-87.2,64.15-87.2,64.15C154.13,80.9,177.07,59.36,216.94,47Zm-66.34,69.9c4.63-9.2,42.6-57,65.53-66.42C191.8,58.4,162.57,93.07,150.6,116.85Zm54.5-9.76s39-54.81,84.21-67.94C253.38,44.09,222.94,75.36,205.1,107.09Zm53.13,13c2.37-3.82,50.18-48.62,72-55.6C306.22,69.21,264.9,109.32,258.23,120.06Zm42.1-21.27c2.79-4.37,21.92-26.24,46.12-30.74C324.54,69.75,312.07,80.45,300.33,98.79Zm-20.57,30.45c12-17.81,47-27,69.54-53.44C328.64,97.46,296.29,104.64,279.76,129.24Zm43.59,7.7c2.79-.14,50.78-29,60.53-40.48,9-10.58,9.9-21.23,2.56-25.61,10.13,10.38-2.38,21.78-7.26,26.5-4.63,4.47-25.47,20.64-55.83,39.59Zm52.14-22.15c17.35-14.16,27.62-39.1,16.32-48.05-3.9-3.1-9.81-4-14.64-3.67,4.84-.32,11.67,1.16,15.07,4.89,11.88,13-8.36,37.3-22.27,48-20,15.35-44.27,25.05-68.12,32.23C327.49,141.13,354.5,131.93,375.49,114.79Zm-164.08,3.47S245,71.09,282,54.42c4.36-2,8.92-2.83,13.5-4C260.48,55.63,229.31,87.6,211.41,118.26ZM203.08,144c2.68-2.18,47.13-61.47,89.63-80.78C256.32,74.57,222.47,110.22,203.08,144Zm246.13-35.24c-1.81-2.76-18-51.7-46.46-44.37C422,61.46,438.37,88.81,449.21,108.73Zm-22.74,55.34c-.31-13.84,3.42-43.73-22.24-65.84C417.92,113.17,425.61,138.94,426.47,164.07Z" transform="translate(75 75)"/><path id="SvgjsPath5386" class="cls-3" d="M518.24,179.57c-25-18.81-26.26-23.43-47-65.32,12.67.42,23.41-1,33.61-2.33-21.2-1-37.61-16-46-22.36C435.37,44.88,416.51.58,369.2,18.9a101.9,101.9,0,0,0-11,5.06c-22.66-22.56-56-32.85-86.43-31.11-88.65,5-127,74.88-163.68,91.61a107.92,107.92,0,0,1-14,5c8.59,2.66,16,2.84,29.65-3.7-16.07,24.36-8.31,11.62-27.72,34.73-8.74,10.33-16.73,23.93-29.57,30.8,11.15.84,18.56-2.94,27.83-10.14,6.43-4.93,13-11.12,17.78-15-18.54,32.47-64.33,69.74-64.33,69.74C63.18,192,79,181.7,91.47,170.31c-.44.68-.91,1.36-1.35,2-6.38,9.61-12.46,19.92-15,31.35-4.58,20.33-.92,39,7.13,58.1C79.53,244.62,77.39,209,94.4,191.59c-2.9,10.06-10.26,29.89-3.25,49.33l2.44-.13.88,0c-7.28-21,.66-43.53,2.35-53-19,13.78-18.29,37.31-18.11,58.48-11.88-47,12.92-71,20.44-85C82.66,175.72,64,187.37,57.42,190.45c8.85-7.11,19.85-16.65,27.45-24.87,17.67-19.19,29.11-40.1,32-45.51-21.59,13.32-30.82,26.13-43,28.85,11-7.45,17.13-18,26-28,21.83-24.74,19-24.68,28.72-39.63-7.4,4-20.56,9.61-28.61,7.67C150,73.85,170.56,11.85,264.68-.25c30.76-4.46,64.62,2.44,92.74,26.05,10.16-5.1,21-9.52,32.5-8.53,34,2.85,45.75,41,64.95,77,31.26,58.68,36.12,67,49.13,77.32-9.71-5.51-21.87-17.14-31.53-26.31,5.75,13.57,10.45,37.09,11.48,52.42-6.73-19-18.09-34-30.13-48.05,2.56,3.35,24.51,29.54,31.29,62.14-9.41-16.68-21-31.57-33.75-45.66,20.26,25,28.17,40.76,34.42,52.81.74,0,.05-.63,3-.14l-1-2c-.32-2.84,1.08-35.41-11.67-66.11C490.43,165.41,497.36,173.38,518.24,179.57Zm-22-67.79c-10.65.07-13.64.14-26.19-.23-2.09-4.26-7.17-12-9.35-16.26C471,103.6,487.79,111.33,496.28,111.78Zm-47.2,144.75c-5.58,26.37-16.2,55.87-29.52,76.6,3.16-39.55,5.57-79.51-.59-106.36-.74,16.39-3.63,32.15-7.67,48,.08-20.3-3.12-40.85-6-60.87a270,270,0,0,0-5.94-29.57c-2.45-9.26-7.47-17.5-12.09-25.76-4.1,16.88-11.36,31.56-19.48,46.77-7.82,14.65-17.82,27.13-31.44,36.29,8.27-15.73,15.48-37.2,20.43-49.47C361.29,180.83,370.23,162,368,145c-14.22,25.57-37.58,49.28-59.58,68.21-21,18.11-66.48,45.35-69.21,46.58.52-.66,25.31-26,41.15-43.56,30-33.2,34.86-39.78,38.89-46.7-15.43,15.22-30.32,31-45.8,46.14C258.36,230.37,243,244.93,229,260.79c3.37-15.62,9.58-30,16.16-43.74,7.19-15,16.62-27.67,27.5-40-64.08,24.9-105.37,75.09-111.12,83.27-.76,12.65-.3,56.69,2,75.23-18.14-29.57-56-76.27-40.7-154.46-5.52,38.13,7.41,96.93,34.74,137.4-1.77-18.26-1-37.13,1.13-55.31a153.54,153.54,0,0,1-15.58,16.06c2.07-18.72,11.17-36.63,19.31-53.27,7.73-15.72,16.51-31.34,28.83-43.85-9.57,13.23-18,29.16-25.61,44.54C157.25,243.52,148,263.92,145.3,276c17.9-19.77,26.59-42.17,71.55-74.06,26.15-18.55,42-22.41,59.08-28.61,2.82-3.29,5.61-6.54,8.34-9.91a216.48,216.48,0,0,0,14.24-20.24c-17.1,30.63-22.82,32-35.83,51.68-19.72,29.82-21.31,38.44-28.17,56.43,16.05-19.21,25-25.53,42-43.86,13.42-14.46,44.24-40.73,45-42.25,3.17-6.19,6.08-15.22,10.36-23.75-4.21,10.38-6.24,21.36-11.74,31.15s-13.81,18.67-20.85,27.38c-11.61,14.33-28.77,32.18-46.15,48.67,13.47-9.44,27.58-17.6,40.58-27.78A403.52,403.52,0,0,0,330,189,259.53,259.53,0,0,0,383,113.49a262.1,262.1,0,0,1-13.74,29.23c2.32,10.49.54,20.83-2.76,30.91-1,3-17.88,48-23.14,58.68,7.92-6.86,13.47-15.2,18.76-24.24,17.83-30.61,26.42-51.95,29.89-88.74-.48,12.06-1.47,24.16-4,36,6.51,14.21,10.29,18,14.18,30.31,7.11,22.57,9.53,46.27,10.15,69.86,4.6-32.71,6.11-64.92-.19-97.61,8.8,39.35,7.48,63.3,7.48,63.3,1.72,6.19,3.11,12.45,4.23,18.78,4.82,27.37,3.16,54.94-.75,82.28,23.51-53,26.82-126,10.73-181.11a232.77,232.77,0,0,1,12.44,59.13c1.53,19.61,1.95,39.88-.33,59.43,5.5-17.38,10-45.34,9.69-50.6C457,220.31,452.75,239.1,449.08,256.53Z" transform="translate(75 75)"/></g><g id="svga-group-glasses-single"><path id="SvgjsPath4901" class="cls-38" d="M417.43,309.72c-6.39,6.62-17.28,9.59-38.14,10.68-27.83,1.46-46.21-.69-59.51-24-10.34-18.13-15.17-37.91-11-45,5.8-9.84,23.56-17.25,43.67-20.21C388.43,246,414.83,278.13,417.43,309.72ZM209.31,238.07c-21.72,1.74-42.6,8.94-50.95,22.79-5.73,9.46-2.94,36,1.9,48.24,6.59,16.75,15.62,22,47.92,20.27,27.84-1.46,45.89-5.52,56.67-30.11,1.07-2.46,2.06-4.93,2.95-7.41C257.4,269.17,236,248.83,209.31,238.07Z" transform="translate(75 75)"/><path id="SvgjsPath4902" class="cls-39" d="M424.83,295.27c-1.7,6.14-3.88,10.85-7.4,14.48-2.6-31.6-29-63.75-65-78.61,26.53-3.93,57-.17,69.24,16C428.36,255.9,428.36,282.52,424.83,295.27ZM271.09,253.32c-8.57-11.62-35.78-17.33-61.78-15.22,26.7,10.73,48.09,31.07,58.52,53.78C273.84,275.18,275.36,259.12,271.09,253.32Z" transform="translate(75 75)"/><path id="SvgjsPath4903" class="cls-40" d="M436.73,233.11c-29.79-14-103.9-14.56-129.47,7.22-2.21,1.45-12.12-.88-18-.57-5.55.29-15.27,3.79-17.83,2.44-27.7-19-101.36-10.7-129.52,6.36-4,2.47-3.93,13.08-.24,14.51,2.66,1,4.45,2.57,4.46,5.42-.08,16,5.42,36.59,7.66,42.21,2.86,7.24,8.05,20.72,27.72,23.09,16.74,2,47,1.76,62.42-3.76,28-10,37.84-53.47,37.58-68.09l0,.05c.87-5.18,16.29-6,17.73-.93l0-.05c1.25,14.57,15.62,56.8,44.5,63.79,15.93,3.87,46,.95,62.47-2.79,19.32-4.41,23.06-18.36,25.15-25.86,1.64-5.85,5-26.83,3.24-42.78-.29-2.84,1.36-4.55,3.86-5.85C442,245.71,441,235.14,436.73,233.11ZM240.56,322.59c-14.17,5.05-40.51,6.72-56,4.85-13-1.57-18.82-8.32-23-18.86-4.87-12.31-7.33-38.17-2-47,17.75-29.41,95.19-28,110.34-7.44C276.7,263.36,267.12,313.12,240.56,322.59Zm182.88-27.71c-3,10.92-8.09,18.24-20.86,21.16-15.2,3.48-41.57,4.58-56.2,1-27.4-6.64-42.13-55.12-36.37-65,12.92-22,89.79-31.53,110.52-4.13C426.75,256.12,427,282.14,423.44,294.88Z" transform="translate(75 75)"/><path id="SvgjsPath4904" class="cls-41" d="M346.35,316.93c8.06,1.95,19.7,2.51,31.07,2-35.51,5.34-44.31-7.38-49.5-12.13-10.55-9.7-17.53-24.63-19.13-46.52C309.78,277.58,323.74,311.47,346.35,316.93Zm-75-74.84c-27.71-19-101.36-10.72-129.52,6.36C207,226.43,246,234,271.39,242.09ZM184.5,327.35c-13-1.57-18.81-8.31-23-18.86-4.34-11-6.77-32.8-3.43-43.62-4.58,12.28-1.34,35.43,3.2,46.92,5.27,13.42,14,19.76,50.32,15.8A152.75,152.75,0,0,1,184.5,327.35Zm256-86.76c-.28-3.21-1.63-6.53-3.82-7.59-29.21-13.76-101.05-14.51-127.91,6C345.42,222,399.3,217.09,440.49,240.59Z" transform="translate(75 75)"/></g></g></g></svg>